<?xml version="1.0" encoding="UTF-8"?>
<mxfile host="app.diagrams.net" modified="2025-04-28T12:00:00.000Z" agent="Mozilla/5.0" version="15.8.3" etag="abc123" type="device">
  <diagram id="migration-map" name="Migration Map">
    <mxGraphModel dx="1422" dy="1598" grid="1" gridSize="10" guides="1" tooltips="1" connect="1" arrows="1" fold="1" page="1" pageScale="1" pageWidth="1169" pageHeight="1654" background="#ffffff" math="0" shadow="0">
      <root>
        <mxCell id="0" />
        <mxCell id="1" parent="0" />
        
        <!-- Background Map Image -->
        <mxCell id="2" value="" style="shape=image;verticalLabelPosition=bottom;labelBackgroundColor=#ffffff;verticalAlign=top;aspect=fixed;imageAspect=0;image=subsaharan_africa_highlighted.png;" vertex="1" parent="1">
          <mxGeometry x="50" y="50" width="1000" height="1000" as="geometry" />
        </mxCell>
        
        <!-- Migration Flows -->
        <!-- DRC to Kenya -->
        <mxCell id="3" style="edgeStyle=orthogonalEdgeStyle;rounded=1;orthogonalLoop=1;jettySize=auto;html=1;exitX=1;exitY=0.5;entryX=0;entryY=0.5;startArrow=none;startFill=0;endArrow=classic;endFill=1;strokeWidth=2;strokeColor=#b3cde3;curved=1;" edge="1" parent="1" source="drc_center" target="kenya_center">
          <mxGeometry relative="1" as="geometry" />
        </mxCell>
        
        <!-- DRC to South Africa -->
        <mxCell id="4" style="edgeStyle=orthogonalEdgeStyle;rounded=1;orthogonalLoop=1;jettySize=auto;html=1;exitX=0.5;exitY=1;entryX=0.5;entryY=0;startArrow=none;startFill=0;endArrow=classic;endFill=1;strokeWidth=2;strokeColor=#b3cde3;curved=1;" edge="1" parent="1" source="drc_center" target="sa_center">
          <mxGeometry relative="1" as="geometry" />
        </mxCell>
        
        <!-- Somalia to Kenya -->
        <mxCell id="5" style="edgeStyle=orthogonalEdgeStyle;rounded=1;orthogonalLoop=1;jettySize=auto;html=1;exitX=0;exitY=0.5;entryX=1;entryY=0.5;startArrow=none;startFill=0;endArrow=classic;endFill=1;strokeWidth=2;strokeColor=#8c96c6;curved=1;" edge="1" parent="1" source="somalia_center" target="kenya_center">
          <mxGeometry relative="1" as="geometry" />
        </mxCell>
        
        <!-- Somalia to South Africa -->
        <mxCell id="6" style="edgeStyle=orthogonalEdgeStyle;rounded=1;orthogonalLoop=1;jettySize=auto;html=1;exitX=0.5;exitY=1;entryX=0.5;entryY=0;startArrow=none;startFill=0;endArrow=classic;endFill=1;strokeWidth=2;strokeColor=#8c96c6;curved=1;" edge="1" parent="1" source="somalia_center" target="sa_center">
          <mxGeometry relative="1" as="geometry" />
        </mxCell>
        
        <!-- Hidden reference points for countries -->
        <mxCell id="drc_center" value="" style="ellipse;whiteSpace=wrap;html=1;aspect=fixed;fillColor=none;strokeColor=none;" vertex="1" parent="1">
          <mxGeometry x="400" y="370" width="10" height="10" as="geometry" />
        </mxCell>
        
        <mxCell id="kenya_center" value="" style="ellipse;whiteSpace=wrap;html=1;aspect=fixed;fillColor=none;strokeColor=none;" vertex="1" parent="1">
          <mxGeometry x="580" y="380" width="10" height="10" as="geometry" />
        </mxCell>
        
        <mxCell id="somalia_center" value="" style="ellipse;whiteSpace=wrap;html=1;aspect=fixed;fillColor=none;strokeColor=none;" vertex="1" parent="1">
          <mxGeometry x="650" y="350" width="10" height="10" as="geometry" />
        </mxCell>
        
        <mxCell id="somaliland_center" value="" style="ellipse;whiteSpace=wrap;html=1;aspect=fixed;fillColor=none;strokeColor=none;" vertex="1" parent="1">
          <mxGeometry x="620" y="300" width="10" height="10" as="geometry" />
        </mxCell>
        
        <mxCell id="sa_center" value="" style="ellipse;whiteSpace=wrap;html=1;aspect=fixed;fillColor=none;strokeColor=none;" vertex="1" parent="1">
          <mxGeometry x="530" y="650" width="10" height="10" as="geometry" />
        </mxCell>
        
        <!-- Somaliland to Kenya -->
        <mxCell id="12" style="edgeStyle=orthogonalEdgeStyle;rounded=1;orthogonalLoop=1;jettySize=auto;html=1;exitX=0;exitY=1;entryX=0.5;entryY=0;startArrow=none;startFill=0;endArrow=classic;endFill=1;strokeWidth=2;strokeColor=#9e9ac8;curved=1;" edge="1" parent="1" source="somaliland_center" target="kenya_center">
          <mxGeometry relative="1" as="geometry" />
        </mxCell>
        
        <!-- Somaliland to South Africa -->
        <mxCell id="13" style="edgeStyle=orthogonalEdgeStyle;rounded=1;orthogonalLoop=1;jettySize=auto;html=1;exitX=0.5;exitY=1;entryX=0.5;entryY=0;startArrow=none;startFill=0;endArrow=classic;endFill=1;strokeWidth=2;strokeColor=#9e9ac8;curved=1;" edge="1" parent="1" source="somaliland_center" target="sa_center">
          <mxGeometry relative="1" as="geometry" />
        </mxCell>
        
        <!-- No legend for scientific style -->
        
        <mxCell id="11" value="Somalia Migration" style="text;html=1;strokeColor=none;fillColor=none;align=left;verticalAlign=middle;whiteSpace=wrap;rounded=0;" vertex="1" parent="1">
          <mxGeometry x="860" y="660" width="120" height="20" as="geometry" />
        </mxCell>
        
      </root>
    </mxGraphModel>
  </diagram>
</mxfile>